<svg width="270.00000000000006" height="152.0316386984708" viewBox="0 0 270.00000000000006 152.0316386984708" class="css-1j8o68f"><defs id="SvgjsDefs1284"></defs><g id="SvgjsG1285" featurekey="symbolFeature-0" transform="matrix(0.800000011920929,0,0,0.800000011920929,95.428125,-4)" fill="#0ea47a" style="--darkreader-inline-fill:#1c8162;" data-darkreader-inline-fill=""><path xmlns="http://www.w3.org/2000/svg" d="M49.97,5C37.846,5,26.406,9.439,17.805,18.041C9.199,26.646,4.466,37.792,4.466,49.914  c0.002,12.044,4.673,23.367,13.139,31.949C26.184,90.327,37.51,95,49.554,95c12.12,0,23.534-4.731,32.142-13.338  C90.299,73.062,95,61.622,95,49.497V5H49.97z M71.701,35.056c-4.34,0-7.855-3.516-7.855-7.855c0-4.339,3.516-7.855,7.855-7.855  c4.338,0,7.855,3.516,7.855,7.855C79.557,31.54,76.039,35.056,71.701,35.056z"></path></g></svg>